<svg width="149" height="179" viewBox="0 0 149 179" fill="none" xmlns="http://www.w3.org/2000/svg">
<path d="M181.78 198.584H35.3302C30.2997 198.583 25.3273 197.502 20.7456 195.414C16.164 193.325 12.0787 190.278 8.76283 186.474C5.44701 182.671 2.97709 178.2 1.51834 173.359C0.0595848 168.519 -0.35444 163.422 0.303982 158.408L17.2248 30.8196C18.359 22.2884 22.5352 14.4612 28.9775 8.79266C35.4197 3.12411 43.6899 -0.000306939 52.251 2.26161e-08H165.056C173.63 0.0102051 181.907 3.15364 188.345 8.84464C194.784 14.5356 198.946 22.386 200.054 30.933L216.975 158.521C217.618 163.541 217.186 168.64 215.71 173.479C214.233 178.317 211.745 182.783 208.413 186.576C205.08 190.369 200.98 193.403 196.387 195.474C191.794 197.545 186.814 198.605 181.78 198.584V198.584Z" fill="white" fill-opacity="0.04"/>
</svg>
