<svg width="40" height="40" viewBox="0 0 40 40" fill="none" xmlns="http://www.w3.org/2000/svg">
<g opacity="0.06">
<rect width="40" height="40" rx="8" fill="white"/>
</g>
<path d="M16.9302 19.0843L20.3823 22.7272C20.7566 23.1221 21.4344 23.1785 22.1896 22.8063C24.1114 22.0096 24.7508 21.8153 25.1159 22.2005L29.0841 26.388C29.5532 26.883 29.428 27.7074 28.9035 28.261C26.1798 31.1351 21.7527 31.1351 19.029 28.261L11.6161 20.4386C8.90598 17.5788 8.90598 12.9522 11.6161 10.0925C12.1517 9.52728 12.9742 9.38821 13.461 9.90185L17.4292 14.0893C17.7732 14.4523 17.5888 15.1283 16.8378 17.1425C16.4887 17.9287 16.5446 18.6775 16.9302 19.0843Z" fill="white"/>
</svg>
