<svg width="40" height="40" viewBox="0 0 40 40" fill="none" xmlns="http://www.w3.org/2000/svg">
<path fill-rule="evenodd" clip-rule="evenodd" d="M0 11.2699V5.63494C0 4.07889 0.550145 2.75072 1.65043 1.65043C2.75072 0.550145 4.07889 0 5.63494 0H34.3651C35.9211 0 37.2493 0.550145 38.3496 1.65043C39.4498 2.75072 40 4.07889 40 5.63494V34.3651C40 35.9211 39.4498 37.2493 38.3496 38.3496C37.2493 39.4498 35.9211 40 34.3651 40H5.63494C4.07889 40 2.75072 39.4498 1.65043 38.3496C0.550145 37.2493 0 35.9211 0 34.3651V11.2699Z" fill="#F5F6FA" fill-opacity="0.1"/>
<path d="M21.1399 29.9999V20.4208H24.383L24.8686 16.6876H21.1399V14.3042C21.1399 13.2233 21.4426 12.4867 23.0061 12.4867L25 12.4858V9.14694C24.655 9.10161 23.4715 9 22.0945 9C19.2197 9 17.2515 10.7397 17.2515 13.9346V16.6877H14V20.4209H17.2514V30L21.1399 29.9999Z" fill="white"/>
</svg>
