<svg width="32" height="32" viewBox="0 0 32 32" fill="none" xmlns="http://www.w3.org/2000/svg">
<g clip-path="url(#clip0_0_9184)">
<path opacity="0.1" d="M16.7619 0H15.2381C6.82233 0 0 7.16344 0 16C0 24.8366 6.82233 32 15.2381 32H16.7619C25.1777 32 32 24.8366 32 16C32 7.16344 25.1777 0 16.7619 0Z" fill="white"/>
<path d="M17.1086 17.0001H18.6958L19.3307 14.3335H17.1086V13.0001C17.1086 12.3135 17.1086 11.6669 18.3783 11.6669H19.3307V9.42686C19.1238 9.39814 18.3422 9.3335 17.5168 9.3335C15.793 9.3335 14.5688 10.4381 14.5688 12.4669V14.3335H12.6641V17.0001H14.5688V22.6669H17.1086V17.0001Z" fill="white"/>
</g>
<defs>
<clipPath id="clip0_0_9184">
<rect width="32" height="32" fill="white"/>
</clipPath>
</defs>
</svg>
