<svg width="98" height="98" viewBox="0 0 98 98" fill="none" xmlns="http://www.w3.org/2000/svg">
<g filter="url(#filter0_d_0_9914)">
<path d="M41 68C57.5685 68 71 54.5685 71 38C71 21.4315 57.5685 8 41 8C24.4315 8 11 21.4315 11 38C11 54.5685 24.4315 68 41 68Z" fill="white"/>
</g>
<path d="M51.4 51.6H36.6C34.8328 51.6 33.4 50.1672 33.4 48.4V33.6C33.4 31.8328 34.8328 30.4 36.6 30.4H51.4C53.1672 30.4 54.6 31.8328 54.6 33.6V48.4C54.6 50.1672 53.1672 51.6 51.4 51.6Z" fill="url(#paint0_linear_0_9914)"/>
<path d="M45.4 45.6H30.6C28.8328 45.6 27.4 44.1672 27.4 42.4V27.6C27.4 25.8328 28.8328 24.4 30.6 24.4H45.4C47.1672 24.4 48.6 25.8328 48.6 27.6V42.4C48.6 44.1672 47.1672 45.6 45.4 45.6Z" fill="url(#paint1_linear_0_9914)"/>
<path d="M42.4733 31.8067C42.4114 31.7442 42.3376 31.6946 42.2564 31.6608C42.1752 31.6269 42.088 31.6095 42 31.6095C41.912 31.6095 41.8249 31.6269 41.7436 31.6608C41.6624 31.6946 41.5886 31.7442 41.5267 31.8067L36.56 36.78L34.4733 34.6867C34.409 34.6245 34.333 34.5757 34.2498 34.5429C34.1666 34.5101 34.0777 34.494 33.9882 34.4955C33.8988 34.4971 33.8105 34.5162 33.7284 34.5519C33.6464 34.5875 33.5722 34.639 33.51 34.7034C33.4478 34.7677 33.399 34.8437 33.3662 34.9269C33.3334 35.0101 33.3173 35.099 33.3188 35.1885C33.3204 35.2779 33.3395 35.3662 33.3752 35.4483C33.4109 35.5303 33.4623 35.6045 33.5267 35.6667L36.0867 38.2267C36.1486 38.2892 36.2224 38.3388 36.3036 38.3726C36.3849 38.4065 36.472 38.4239 36.56 38.4239C36.648 38.4239 36.7352 38.4065 36.8164 38.3726C36.8976 38.3388 36.9714 38.2892 37.0333 38.2267L42.4733 32.7867C42.541 32.7243 42.595 32.6485 42.632 32.5642C42.6689 32.4798 42.688 32.3888 42.688 32.2967C42.688 32.2046 42.6689 32.1136 42.632 32.0292C42.595 31.9449 42.541 31.8691 42.4733 31.8067Z" fill="#030640"/>
<path d="M51.4 52H36.6C34.6152 52 33 50.3852 33 48.4V47.6C33 47.3788 33.1792 47.2 33.4 47.2C33.6208 47.2 33.8 47.3788 33.8 47.6V48.4C33.8 49.9436 35.056 51.2 36.6 51.2H51.4C52.944 51.2 54.2 49.9436 54.2 48.4V33.6C54.2 32.0564 52.944 30.8 51.4 30.8H50.6C50.3792 30.8 50.2 30.6212 50.2 30.4C50.2 30.1788 50.3792 30 50.6 30H51.4C53.3848 30 55 31.6148 55 33.6V48.4C55 50.3852 53.3848 52 51.4 52Z" fill="#030640"/>
<path d="M45.2 44H30.8C29.8076 44 29 43.1924 29 42.2V27.8C29 26.8076 29.8076 26 30.8 26H42.4C42.5104 26 42.6 26.0896 42.6 26.2C42.6 26.3104 42.5104 26.4 42.4 26.4H30.8C30.028 26.4 29.4 27.028 29.4 27.8V42.2C29.4 42.972 30.028 43.6 30.8 43.6H45.2C45.972 43.6 46.6 42.972 46.6 42.2V35.2C46.6 35.0896 46.6896 35 46.8 35C46.9104 35 47 35.0896 47 35.2V42.2C47 43.1924 46.1924 44 45.2 44ZM46.8 34C46.6896 34 46.6 33.9104 46.6 33.8V32.2C46.6 32.0896 46.6896 32 46.8 32C46.9104 32 47 32.0896 47 32.2V33.8C47 33.9104 46.9104 34 46.8 34ZM46.8 31.6C46.6896 31.6 46.6 31.5104 46.6 31.4V30.6C46.6 30.4896 46.6896 30.4 46.8 30.4C46.9104 30.4 47 30.4896 47 30.6V31.4C47 31.5104 46.9104 31.6 46.8 31.6Z" fill="#030640"/>
<path d="M45.4 46H30.6C28.6152 46 27 44.3852 27 42.4V27.6C27 25.6148 28.6152 24 30.6 24H45.4C47.3848 24 49 25.6148 49 27.6V42.4C49 44.3852 47.3848 46 45.4 46ZM30.6 24.8C29.056 24.8 27.8 26.0564 27.8 27.6V42.4C27.8 43.9436 29.056 45.2 30.6 45.2H45.4C46.944 45.2 48.2 43.9436 48.2 42.4V27.6C48.2 26.0564 46.944 24.8 45.4 24.8H30.6Z" fill="#030640"/>
<defs>
<filter id="filter0_d_0_9914" x="0" y="0" width="98" height="98" filterUnits="userSpaceOnUse" color-interpolation-filters="sRGB">
<feFlood flood-opacity="0" result="BackgroundImageFix"/>
<feColorMatrix in="SourceAlpha" type="matrix" values="0 0 0 0 0 0 0 0 0 0 0 0 0 0 0 0 0 0 127 0" result="hardAlpha"/>
<feOffset dx="8" dy="11"/>
<feGaussianBlur stdDeviation="9.5"/>
<feColorMatrix type="matrix" values="0 0 0 0 0.643137 0 0 0 0 0.627451 0 0 0 0 0.627451 0 0 0 0.270588 0"/>
<feBlend mode="normal" in2="BackgroundImageFix" result="effect1_dropShadow_0_9914"/>
<feBlend mode="normal" in="SourceGraphic" in2="effect1_dropShadow_0_9914" result="shape"/>
</filter>
<linearGradient id="paint0_linear_0_9914" x1="44" y1="51.6" x2="44" y2="30.4" gradientUnits="userSpaceOnUse">
<stop stop-color="#F58033" stop-opacity="0.1"/>
<stop offset="1" stop-color="#6200F0" stop-opacity="0.1"/>
</linearGradient>
<linearGradient id="paint1_linear_0_9914" x1="38" y1="45.6" x2="38" y2="24.4" gradientUnits="userSpaceOnUse">
<stop stop-color="#6200F0" stop-opacity="0.2"/>
<stop offset="1" stop-color="#BEC6D8"/>
</linearGradient>
</defs>
</svg>
