<svg width="40" height="40" viewBox="0 0 40 40" fill="none" xmlns="http://www.w3.org/2000/svg">
<path fill-rule="evenodd" clip-rule="evenodd" d="M0 11.2699V5.63494C0 4.07889 0.550145 2.75072 1.65043 1.65043C2.75072 0.550145 4.07889 0 5.63494 0H34.3651C35.9211 0 37.2493 0.550145 38.3496 1.65043C39.4498 2.75072 40 4.07889 40 5.63494V34.3651C40 35.9211 39.4498 37.2493 38.3496 38.3496C37.2493 39.4498 35.9211 40 34.3651 40H5.63494C4.07889 40 2.75072 39.4498 1.65043 38.3496C0.550145 37.2493 0 35.9211 0 34.3651V11.2699Z" fill="#F5F6FA" fill-opacity="0.1"/>
<path d="M19.8926 15.8145C17.6426 15.8145 15.8496 17.6426 15.8496 19.8574C15.8496 22.1074 17.6426 23.9004 19.8926 23.9004C22.1074 23.9004 23.9355 22.1074 23.9355 19.8574C23.9355 17.6426 22.1074 15.8145 19.8926 15.8145ZM19.8926 22.4941C18.4512 22.4941 17.2559 21.334 17.2559 19.8574C17.2559 18.416 18.416 17.2559 19.8926 17.2559C21.334 17.2559 22.4941 18.416 22.4941 19.8574C22.4941 21.334 21.334 22.4941 19.8926 22.4941ZM25.0254 15.6738C25.0254 15.1465 24.6035 14.7246 24.0762 14.7246C23.5488 14.7246 23.127 15.1465 23.127 15.6738C23.127 16.2012 23.5488 16.623 24.0762 16.623C24.6035 16.623 25.0254 16.2012 25.0254 15.6738ZM27.6973 16.623C27.627 15.3574 27.3457 14.2324 26.4316 13.3184C25.5176 12.4043 24.3926 12.123 23.127 12.0527C21.8262 11.9824 17.9238 11.9824 16.623 12.0527C15.3574 12.123 14.2676 12.4043 13.3184 13.3184C12.4043 14.2324 12.123 15.3574 12.0527 16.623C11.9824 17.9238 11.9824 21.8262 12.0527 23.127C12.123 24.3926 12.4043 25.4824 13.3184 26.4316C14.2676 27.3457 15.3574 27.627 16.623 27.6973C17.9238 27.7676 21.8262 27.7676 23.127 27.6973C24.3926 27.627 25.5176 27.3457 26.4316 26.4316C27.3457 25.4824 27.627 24.3926 27.6973 23.127C27.7676 21.8262 27.7676 17.9238 27.6973 16.623ZM26.0098 24.498C25.7637 25.2012 25.2012 25.7285 24.5332 26.0098C23.4785 26.4316 21.0176 26.3262 19.8926 26.3262C18.7324 26.3262 16.2715 26.4316 15.252 26.0098C14.5488 25.7285 14.0215 25.2012 13.7402 24.498C13.3184 23.4785 13.4238 21.0176 13.4238 19.8574C13.4238 18.7324 13.3184 16.2715 13.7402 15.2168C14.0215 14.5488 14.5488 14.0215 15.252 13.7402C16.2715 13.3184 18.7324 13.4238 19.8926 13.4238C21.0176 13.4238 23.4785 13.3184 24.5332 13.7402C25.2012 13.9863 25.7285 14.5488 26.0098 15.2168C26.4316 16.2715 26.3262 18.7324 26.3262 19.8574C26.3262 21.0176 26.4316 23.4785 26.0098 24.498Z" fill="white"/>
</svg>
