<svg width="32" height="32" viewBox="0 0 32 32" fill="none" xmlns="http://www.w3.org/2000/svg">
<g clip-path="url(#clip0_0_9190)">
<path opacity="0.1" d="M32 16C32 7.16344 24.8366 0 16 0C7.16344 0 0 7.16344 0 16C0 24.8366 7.16344 32 16 32C24.8366 32 32 24.8366 32 16Z" fill="white"/>
<path d="M16.2665 13.3915C14.6665 13.3915 13.3916 14.6915 13.3916 16.2665C13.3916 17.8665 14.6665 19.1415 16.2665 19.1415C17.8416 19.1415 19.1416 17.8665 19.1416 16.2665C19.1416 14.6915 17.8416 13.3915 16.2665 13.3915ZM16.2665 18.1415C15.2416 18.1415 14.3916 17.3165 14.3916 16.2665C14.3916 15.2415 15.2165 14.4165 16.2665 14.4165C17.2916 14.4165 18.1165 15.2415 18.1165 16.2665C18.1165 17.3165 17.2916 18.1415 16.2665 18.1415ZM19.9165 13.2915C19.9165 12.9165 19.6165 12.6165 19.2416 12.6165C18.8665 12.6165 18.5665 12.9165 18.5665 13.2915C18.5665 13.6665 18.8665 13.9665 19.2416 13.9665C19.6165 13.9665 19.9165 13.6665 19.9165 13.2915ZM21.8165 13.9665C21.7665 13.0665 21.5665 12.2665 20.9165 11.6165C20.2665 10.9665 19.4665 10.7665 18.5665 10.7165C17.6416 10.6665 14.8665 10.6665 13.9416 10.7165C13.0416 10.7665 12.2665 10.9665 11.5916 11.6165C10.9416 12.2665 10.7416 13.0665 10.6916 13.9665C10.6416 14.8915 10.6416 17.6665 10.6916 18.5915C10.7416 19.4915 10.9416 20.2665 11.5916 20.9415C12.2665 21.5915 13.0416 21.7915 13.9416 21.8415C14.8665 21.8915 17.6416 21.8915 18.5665 21.8415C19.4665 21.7915 20.2665 21.5915 20.9165 20.9415C21.5665 20.2665 21.7665 19.4915 21.8165 18.5915C21.8665 17.6665 21.8665 14.8915 21.8165 13.9665ZM20.6165 19.5665C20.4416 20.0665 20.0416 20.4415 19.5665 20.6415C18.8165 20.9415 17.0665 20.8665 16.2665 20.8665C15.4416 20.8665 13.6916 20.9415 12.9665 20.6415C12.4665 20.4415 12.0916 20.0665 11.8916 19.5665C11.5916 18.8415 11.6665 17.0915 11.6665 16.2665C11.6665 15.4665 11.5916 13.7165 11.8916 12.9665C12.0916 12.4915 12.4665 12.1165 12.9665 11.9165C13.6916 11.6165 15.4416 11.6915 16.2665 11.6915C17.0665 11.6915 18.8165 11.6165 19.5665 11.9165C20.0416 12.0915 20.4165 12.4915 20.6165 12.9665C20.9165 13.7165 20.8416 15.4665 20.8416 16.2665C20.8416 17.0915 20.9165 18.8415 20.6165 19.5665Z" fill="white"/>
</g>
<defs>
<clipPath id="clip0_0_9190">
<rect width="32" height="32" fill="white"/>
</clipPath>
</defs>
</svg>
