<svg width="40" height="40" viewBox="0 0 40 40" fill="none" xmlns="http://www.w3.org/2000/svg">
<path fill-rule="evenodd" clip-rule="evenodd" d="M0 11.2699V5.63494C0 4.07889 0.550145 2.75072 1.65043 1.65043C2.75072 0.550145 4.07889 0 5.63494 0H34.3651C35.9211 0 37.2493 0.550145 38.3496 1.65043C39.4498 2.75072 40 4.07889 40 5.63494V34.3651C40 35.9211 39.4498 37.2493 38.3496 38.3496C37.2493 39.4498 35.9211 40 34.3651 40H5.63494C4.07889 40 2.75072 39.4498 1.65043 38.3496C0.550145 37.2493 0 35.9211 0 34.3651V11.2699Z" fill="#F5F6FA" fill-opacity="0.1"/>
<path d="M26.625 12H13.0898C12.4922 12 12 12.5273 12 13.1602V26.625C12 27.2578 12.4922 27.75 13.0898 27.75H26.625C27.2227 27.75 27.75 27.2578 27.75 26.625V13.1602C27.75 12.5273 27.2227 12 26.625 12ZM16.7461 25.5H14.4258V18.0117H16.7461V25.5ZM15.5859 16.957C14.8125 16.957 14.2148 16.3594 14.2148 15.6211C14.2148 14.8828 14.8125 14.25 15.5859 14.25C16.3242 14.25 16.9219 14.8828 16.9219 15.6211C16.9219 16.3594 16.3242 16.957 15.5859 16.957ZM25.5 25.5H23.1445V21.8438C23.1445 21 23.1445 19.875 21.9492 19.875C20.7188 19.875 20.543 20.8242 20.543 21.8086V25.5H18.2227V18.0117H20.4375V19.0312H20.4727C20.7891 18.4336 21.5625 17.8008 22.6875 17.8008C25.043 17.8008 25.5 19.3828 25.5 21.3867V25.5Z" fill="white"/>
</svg>
