<svg width="40" height="40" viewBox="0 0 40 40" fill="none" xmlns="http://www.w3.org/2000/svg">
<g opacity="0.06">
<rect width="40" height="40" rx="8" fill="white"/>
</g>
<path fill-rule="evenodd" clip-rule="evenodd" d="M30.16 17.4696V26.5001C30.16 28.3558 28.6557 29.8601 26.8 29.8601H13.36C11.5043 29.8601 10 28.3558 10 26.5001V17.4696C10 17.0009 10.2299 16.562 10.6153 16.2937L13.0691 14.5861C13.2867 14.4346 13.5858 14.4883 13.7373 14.7059C13.8887 14.9235 13.8351 15.2226 13.6175 15.374L11.1637 17.0817C11.0379 17.1692 10.9625 17.3108 10.9601 17.4621C11.1102 17.4091 11.2717 17.3802 11.44 17.3802C11.6968 17.3802 11.9489 17.4489 12.1703 17.5791L20.08 22.2332L27.9897 17.5791C28.371 17.3548 28.8131 17.326 29.1999 17.4625C29.1977 17.311 29.1222 17.1693 28.9963 17.0817L26.6128 15.4229C26.3952 15.2715 26.3415 14.9723 26.493 14.7547C26.6444 14.5372 26.9436 14.4835 27.1611 14.6349L29.5447 16.2937C29.9301 16.562 30.16 17.0009 30.16 17.4696Z" fill="white"/>
<path fill-rule="evenodd" clip-rule="evenodd" d="M13 17.2V12.4C13 11.0745 14.0745 10 15.4 10H25C26.3255 10 27.4 11.0745 27.4 12.4V17.2L20.2 21.52L13 17.2ZM17.3198 14.8H23.0798C23.3449 14.8 23.5598 14.5851 23.5598 14.32C23.5598 14.0549 23.3449 13.84 23.0798 13.84H17.3198C17.0547 13.84 16.8398 14.0549 16.8398 14.32C16.8398 14.5851 17.0547 14.8 17.3198 14.8ZM23.0798 17.68H17.3198C17.0547 17.68 16.8398 17.4651 16.8398 17.2C16.8398 16.9349 17.0547 16.72 17.3198 16.72H23.0798C23.3449 16.72 23.5598 16.9349 23.5598 17.2C23.5598 17.4651 23.3449 17.68 23.0798 17.68Z" fill="#5F5F80"/>
</svg>
