<svg width="49" height="48" viewBox="0 0 49 48" fill="none" xmlns="http://www.w3.org/2000/svg">
<g opacity="0.06">
<rect x="0.625" width="48" height="48" rx="16" fill="#6200F0"/>
</g>
<path fill-rule="evenodd" clip-rule="evenodd" d="M24.8653 16.0636H18.5931V14.1588H24.8653L23.9514 13.245C23.5795 12.873 23.5795 12.27 23.9514 11.8981C24.3233 11.5262 24.9264 11.5262 25.2983 11.8981L27.838 14.4378C28.2099 14.8097 28.2099 15.4127 27.838 15.7846L25.2983 18.3243C24.9264 18.6962 24.3233 18.6962 23.9514 18.3243C23.5795 17.9524 23.5795 17.3494 23.9514 16.9775L24.8653 16.0636ZM35.3804 23.3267L34.4666 24.2406V17.9684H32.5618V24.2406L31.648 23.3267C31.276 22.9548 30.673 22.9548 30.3011 23.3267C29.9292 23.6987 29.9292 24.3017 30.3011 24.6736L32.8408 27.2133C33.0267 27.3993 33.2705 27.4922 33.5142 27.4922C33.7579 27.4922 34.0017 27.3993 34.1876 27.2133L36.7273 24.6736C37.0992 24.3017 37.0992 23.6987 36.7273 23.3267C36.3554 22.9548 35.7524 22.9548 35.3804 23.3267ZM25.299 34.7551L24.3851 33.8413H30.6573V31.9365H24.3851L25.299 31.0226C25.6709 30.6507 25.6709 30.0477 25.299 29.6758C24.927 29.3038 24.324 29.3038 23.9521 29.6758L21.4124 32.2154C21.0405 32.5874 21.0405 33.1904 21.4124 33.5623L23.9521 36.102C24.324 36.4739 24.927 36.4739 25.299 36.102C25.6709 35.7301 25.6709 35.1271 25.299 34.7551ZM13.87 24.6736L14.7838 23.7598V30.0319H16.6886V23.7598L17.6025 24.6736C17.9744 25.0456 18.5774 25.0456 18.9493 24.6736C19.3212 24.3017 19.3212 23.6987 18.9493 23.3268L16.4096 20.7871C16.0377 20.4152 15.4347 20.4152 15.0628 20.7871L12.5231 23.3268C12.1512 23.6987 12.1512 24.3017 12.5231 24.6736C12.895 25.0456 13.498 25.0456 13.87 24.6736Z" fill="#6200F0" fill-opacity="0.2"/>
<path fill-rule="evenodd" clip-rule="evenodd" d="M36.0539 19.5555H30.9745C29.9226 19.5555 29.0698 18.7028 29.0698 17.6508V12.5714C29.0698 11.5194 29.9226 10.6667 30.9745 10.6667H36.0539C37.1059 10.6667 37.9587 11.5194 37.9587 12.5714V17.6508C37.9587 18.7028 37.1059 19.5555 36.0539 19.5555ZM20.1805 17.6509V12.5715C20.1805 11.5195 19.3277 10.6667 18.2758 10.6667H13.1964C12.1444 10.6667 11.2916 11.5195 11.2916 12.5715V17.6509C11.2916 18.7028 12.1444 19.5556 13.1964 19.5556H18.2758C19.3277 19.5556 20.1805 18.7028 20.1805 17.6509ZM18.2759 28.4443H13.1966C12.1446 28.4443 11.2918 29.2971 11.2918 30.3491V35.4285C11.2918 36.4804 12.1446 37.3332 13.1966 37.3332H18.2759C19.3279 37.3332 20.1807 36.4804 20.1807 35.4285V30.3491C20.1807 29.2971 19.3279 28.4443 18.2759 28.4443ZM29.0698 30.3491V35.4285C29.0698 36.4804 29.9226 37.3332 30.9745 37.3332H36.0539C37.1059 37.3332 37.9587 36.4804 37.9587 35.4285V30.3491C37.9587 29.2971 37.1059 28.4443 36.0539 28.4443H30.9745C29.9226 28.4443 29.0698 29.2971 29.0698 30.3491Z" fill="#6200F0"/>
</svg>
