<svg width="32" height="32" viewBox="0 0 32 32" fill="none" xmlns="http://www.w3.org/2000/svg">
<g clip-path="url(#clip0_0_9187)">
<path opacity="0.1" d="M16.7619 0H15.2381C6.82233 0 0 7.16344 0 16C0 24.8366 6.82233 32 15.2381 32H16.7619C25.1777 32 32 24.8366 32 16C32 7.16344 25.1777 0 16.7619 0Z" fill="white"/>
<path d="M21.0873 13.6664C21.5635 13.2914 21.9921 12.8414 22.3254 12.3164C21.8968 12.5164 21.3968 12.6664 20.8968 12.7164C21.4206 12.3914 21.8016 11.8914 21.9921 11.2664C21.5159 11.5664 20.9682 11.7914 20.4206 11.9164C19.9444 11.3914 19.3015 11.0914 18.5873 11.0914C17.2063 11.0914 16.0873 12.2664 16.0873 13.7164C16.0873 13.9164 16.1111 14.1164 16.1587 14.3164C14.0873 14.1914 12.2302 13.1414 10.9921 11.5664C10.7777 11.9414 10.6587 12.3914 10.6587 12.8914C10.6587 13.7914 11.0873 14.5914 11.7777 15.0664C11.373 15.0414 10.9682 14.9414 10.6349 14.7414V14.7664C10.6349 16.0414 11.492 17.0914 12.6349 17.3414C12.4444 17.3914 12.2063 17.4414 11.9921 17.4414C11.8254 17.4414 11.6825 17.4164 11.5159 17.3914C11.8254 18.4414 12.754 19.1914 13.8492 19.2164C12.9921 19.9164 11.9206 20.3414 10.754 20.3414C10.5396 20.3414 10.3492 20.3164 10.1587 20.2914C11.2539 21.0414 12.5635 21.4664 13.9921 21.4664C18.5873 21.4664 21.0873 17.4914 21.0873 14.0164C21.0873 13.8914 21.0873 13.7914 21.0873 13.6664Z" fill="white"/>
</g>
<defs>
<clipPath id="clip0_0_9187">
<rect width="32" height="32" fill="white"/>
</clipPath>
</defs>
</svg>
