<svg width="40" height="40" viewBox="0 0 40 40" fill="none" xmlns="http://www.w3.org/2000/svg">
<path fill-rule="evenodd" clip-rule="evenodd" d="M0 11.2699V5.63494C0 4.07889 0.550145 2.75072 1.65043 1.65043C2.75072 0.550145 4.07889 0 5.63494 0H34.3651C35.9211 0 37.2493 0.550145 38.3496 1.65043C39.4498 2.75072 40 4.07889 40 5.63494V34.3651C40 35.9211 39.4498 37.2493 38.3496 38.3496C37.2493 39.4498 35.9211 40 34.3651 40H5.63494C4.07889 40 2.75072 39.4498 1.65043 38.3496C0.550145 37.2493 0 35.9211 0 34.3651V11.2699Z" fill="#F5F6FA" fill-opacity="0.1"/>
<path d="M27.1367 16.6211C27.8398 16.0938 28.4727 15.4609 28.9648 14.7227C28.332 15.0039 27.5938 15.2148 26.8555 15.2852C27.6289 14.8281 28.1914 14.125 28.4727 13.2461C27.7695 13.668 26.9609 13.9844 26.1523 14.1602C25.4492 13.4219 24.5 13 23.4453 13C21.4062 13 19.7539 14.6523 19.7539 16.6914C19.7539 16.9727 19.7891 17.2539 19.8594 17.5352C16.8008 17.3594 14.0586 15.8828 12.2305 13.668C11.9141 14.1953 11.7383 14.8281 11.7383 15.5312C11.7383 16.7969 12.3711 17.9219 13.3906 18.5898C12.793 18.5547 12.1953 18.4141 11.7031 18.1328V18.168C11.7031 19.9609 12.9688 21.4375 14.6562 21.7891C14.375 21.8594 14.0234 21.9297 13.707 21.9297C13.4609 21.9297 13.25 21.8945 13.0039 21.8594C13.4609 23.3359 14.832 24.3906 16.4492 24.4258C15.1836 25.4102 13.6016 26.0078 11.8789 26.0078C11.5625 26.0078 11.2812 25.9727 11 25.9375C12.6172 26.9922 14.5508 27.5898 16.6602 27.5898C23.4453 27.5898 27.1367 22 27.1367 17.1133C27.1367 16.9375 27.1367 16.7969 27.1367 16.6211Z" fill="white"/>
</svg>
